<?xml version="1.0" ?><svg height="100%" id="svg19" style="fill-rule:evenodd;clip-rule:evenodd;stroke-linejoin:round;stroke-miterlimit:2;" version="1.1" viewBox="0 0 64 64" width="100%" xml:space="preserve" xmlns="http://www.w3.org/2000/svg" xmlns:cc="http://creativecommons.org/ns#" xmlns:dc="http://purl.org/dc/elements/1.1/" xmlns:inkscape="http://www.inkscape.org/namespaces/inkscape" xmlns:rdf="http://www.w3.org/1999/02/22-rdf-syntax-ns#" xmlns:sodipodi="http://sodipodi.sourceforge.net/DTD/sodipodi-0.dtd" xmlns:svg="http://www.w3.org/2000/svg"><defs id="defs23"/><path d="m 19.000159,17.000219 c -8.278693,0 -14.9998803,6.721812 -14.9998803,15.000311 0,8.2785 6.7211873,15.000312 14.9998803,15.000312 8.278693,0 14.99988,-6.721812 14.99988,-15.000312 0,-8.278499 -6.721187,-15.000311 -14.99988,-15.000311 z m 0,2.000518 c 7.175022,0 13.000207,5.824617 13.000207,12.999793 0,7.175176 -5.825185,12.999794 -13.000207,12.999794 -7.175022,0 -13.0002074,-5.824618 -13.0002074,-12.999794 0,-7.175176 5.8251854,-12.999793 13.0002074,-12.999793 z" id="path4" style="stroke-width:0.589508;fill:#000000"/><path d="m 44.000238,18.000329 c -1.833426,0 -3.564476,1.046088 -4.939108,2.918094 -1.837217,2.50154 -3.061057,6.530999 -3.061057,11.082119 0,4.551121 1.22384,8.58058 3.061057,11.08212 1.374632,1.872005 3.105682,2.918094 4.939108,2.918094 1.833426,0 3.564476,-1.046089 4.939108,-2.918094 1.837217,-2.50154 3.061057,-6.530999 3.061057,-11.08212 0,-4.55112 -1.22384,-8.580579 -3.061057,-11.082119 -1.374632,-1.872006 -3.105682,-2.918094 -4.939108,-2.918094 z m 0,2.000346 c 1.257673,0 2.384095,0.81762 3.327058,2.101581 1.6383,2.231029 2.672847,5.839508 2.672847,9.898286 0,4.058779 -1.034547,7.667258 -2.672847,9.898286 -0.942963,1.283962 -2.069385,2.101581 -3.327058,2.101581 -1.257673,0 -2.384095,-0.817619 -3.327058,-2.101581 -1.6383,-2.231028 -2.672847,-5.839507 -2.672847,-9.898286 0,-4.058778 1.034547,-7.667257 2.672847,-9.898286 0.942963,-1.283961 2.069385,-2.101581 3.327058,-2.101581 z" id="path8" style="stroke-width:0.401682;fill:#000000"/><path d="m 57.000278,20.000633 c -0.309418,0 -0.623335,0.09877 -0.92067,0.338894 -0.318,0.256512 -0.666835,0.774216 -0.941836,1.558729 -0.663918,1.89388 -1.137503,5.707851 -1.137503,10.10225 0,4.394399 0.473585,8.20837 1.137503,10.102249 0.275001,0.784514 0.623836,1.302218 0.941836,1.558729 0.297335,0.240129 0.611252,0.338895 0.92067,0.338895 0.309418,0 0.623335,-0.09877 0.92067,-0.338895 0.318,-0.256511 0.666835,-0.774215 0.941836,-1.558729 0.663918,-1.893879 1.137503,-5.70785 1.137503,-10.102249 0,-4.394399 -0.473585,-8.20837 -1.137503,-10.10225 -0.275001,-0.784513 -0.623836,-1.302217 -0.941836,-1.558729 -0.297335,-0.240128 -0.611252,-0.338894 -0.92067,-0.338894 z m 0,2.633456 c 0.606335,1.792772 1.000003,5.317934 1.000003,9.366417 0,4.048483 -0.393668,7.573644 -1.000003,9.366417 -0.606335,-1.792773 -1.000003,-5.317934 -1.000003,-9.366417 0,-4.048483 0.393668,-7.573645 1.000003,-9.366417 z" id="path12" style="stroke-width:0.197503;fill:#000000"/></svg>